HIERARCHY
ROOT Hips
{
 OFFSET 0.000000 0.000000 0.000000
 CHANNELS 6 Xposition Yposition Zposition Yrotation Xrotation Zrotation
 JOINT Chest
 {
  OFFSET 0.000000 9.588913 -0.003946
  CHANNELS 3 Yrotation Xrotation Zrotation
  JOINT Chest2
  {
   OFFSET 0.000000 9.541882 0.008053
   CHANNELS 3 Yrotation Xrotation Zrotation
   JOINT Chest3
   {
    OFFSET 0.000000 9.501360 0.000000
    CHANNELS 3 Yrotation Xrotation Zrotation
    JOINT Chest4
    {
     OFFSET 0.000000 9.491660 0.000000
     CHANNELS 3 Yrotation Xrotation Zrotation
     JOINT Neck
     {
      OFFSET 0.000000 14.331917 0.000000
      CHANNELS 3 Yrotation Xrotation Zrotation
      JOINT Head
      {
       OFFSET 0.000000 8.884799 0.017034
       CHANNELS 3 Yrotation Xrotation Zrotation
       End Site
       {
        OFFSET 0.000000 16.896195 0.008993
       }
      }
     }
     JOINT RightCollar
     {
      OFFSET -2.923010 9.499495 0.000000
      CHANNELS 3 Yrotation Xrotation Zrotation
      JOINT RightShoulder
      {
       OFFSET -13.795216 0.000000 0.000000
       CHANNELS 3 Yrotation Xrotation Zrotation
       JOINT RightElbow
       {
        OFFSET -30.272209 0.000000 0.000000
        CHANNELS 3 Yrotation Xrotation Zrotation
        JOINT RightWrist
        {
         OFFSET -24.478199 0.000000 0.000000
         CHANNELS 3 Yrotation Xrotation Zrotation
         End Site
         {
          OFFSET -18.090752 0.000000 0.000000
         }
        }
       }
      }
     }
     JOINT LeftCollar
     {
      OFFSET 2.923010 9.499495 0.000000
      CHANNELS 3 Yrotation Xrotation Zrotation
      JOINT LeftShoulder
      {
       OFFSET 13.795216 0.000000 0.000000
       CHANNELS 3 Yrotation Xrotation Zrotation
       JOINT LeftElbow
       {
        OFFSET 30.272209 0.000000 0.000000
        CHANNELS 3 Yrotation Xrotation Zrotation
        JOINT LeftWrist
        {
         OFFSET 24.478199 0.000000 0.000000
         CHANNELS 3 Yrotation Xrotation Zrotation
         End Site
         {
          OFFSET 18.090752 0.000000 0.000000
         }
        }
       }
      }
     }
    }
   }
  }
 }
 JOINT RightHip
 {
  OFFSET -7.826875 0.019532 0.001973
  CHANNELS 3 Yrotation Xrotation Zrotation
  JOINT RightKnee
  {
   OFFSET 0.000000 -40.546152 -0.001885
   CHANNELS 3 Yrotation Xrotation Zrotation
   JOINT RightAnkle
   {
    OFFSET 0.000000 -39.417092 -0.003189
    CHANNELS 3 Yrotation Xrotation Zrotation
    JOINT RightToe
    {
     OFFSET 0.000000 -7.579396 17.243563
     CHANNELS 3 Yrotation Xrotation Zrotation
     End Site
     {
      OFFSET 0.000000 -1.500329 6.694466
     }
    }
   }
  }
 }
 JOINT LeftHip
 {
  OFFSET 7.826875 0.019532 0.001973
  CHANNELS 3 Yrotation Xrotation Zrotation
  JOINT LeftKnee
  {
   OFFSET 0.000000 -40.546152 -0.001885
   CHANNELS 3 Yrotation Xrotation Zrotation
   JOINT LeftAnkle
   {
    OFFSET 0.000000 -39.417092 -0.003189
    CHANNELS 3 Yrotation Xrotation Zrotation
    JOINT LeftToe
    {
     OFFSET 0.000000 -7.579396 17.243563
     CHANNELS 3 Yrotation Xrotation Zrotation
     End Site
     {
      OFFSET 0.000000 -1.500329 6.694466
     }
    }
   }
  }
 }
}
MOTION
Frames: 8
Frame Time: 0.008333
0.000000 87.345680 0.000000 0.000000 -5.767889 0.000000 0.000000 11.653876 0.000000 0.000000 -5.885988 0.000000 0.000000 -0.000000 0.000000 0.000000 -0.000000 0.000000 0.000000 12.528808 0.000000 0.000000 0.711711 0.000000 0.000000 -0.000000 0.000000 0.000000 -0.000000 0.000000 2.309063 -0.000000 0.000000 -2.309063 -0.000000 -0.000000 0.000000 -0.000000 0.000000 0.000000 0.000000 0.000000 -2.309063 0.000000 0.000000 2.309063 -0.000000 0.000000 0.000000 8.520374 0.000000 0.000000 1.905768 0.000000 -0.000000 -4.658254 0.000000 0.000000 -0.000000 0.000000 0.000000 8.520374 0.000000 0.000000 1.905768 0.000000 -0.000000 -4.658254 0.000000 0.000000 -0.000000 0.000000
-27.759555 87.452667 4.322207 -136.304086 -8.467483 0.473240 2.300346 3.765316 0.612558 1.261759 2.153283 0.545082 1.580676 2.689679 0.688879 1.261759 2.153283 0.545082 -5.717839 19.270221 -0.248656 -6.096310 -5.178931 1.046434 0.584477 2.691722 -0.449956 -15.380258 5.740272 79.162234 12.785062 -2.800141 7.818545 -3.399250 -3.786019 2.911389 -3.588433 2.055571 -0.502176 12.433144 3.628154 -78.547020 -9.821057 -3.053486 -7.905636 4.217604 -3.193516 -3.058307 -9.345912 14.371935 -14.884975 -3.308538 0.116831 -0.053306 -5.239471 -4.827503 10.265478 0.096484 -0.555866 0.041824 11.924604 11.907323 11.204150 12.243209 -1.095467 -0.258298 0.104122 -2.411213 -9.122692 0.101091 0.591975 0.042732
-27.761418 87.451828 4.320158 -136.314502 -8.466785 0.474137 2.298803 3.762179 0.611215 1.261131 2.150918 0.544819 1.579886 2.686725 0.688538 1.261131 2.150918 0.544819 -5.713858 19.274312 -0.251805 -6.091208 -5.174631 1.042113 0.596171 2.699074 -0.441423 -15.372874 5.727666 79.162209 12.772155 -2.803932 7.817279 -3.400052 -3.780467 2.911801 -3.594165 2.070487 -0.500070 12.442954 3.620399 -78.552944 -9.812916 -3.054108 -7.898669 4.217274 -3.184094 -3.066651 -9.344740 14.374398 -14.887685 -3.307505 0.109705 -0.054825 -5.232219 -4.823610 10.268882 0.097009 -0.554219 0.041412 11.922951 11.911179 11.201343 12.244847 -1.095883 -0.256181 0.109308 -2.412463 -9.125094 0.100015 0.592684 0.043769
-27.763056 87.450720 4.317822 -136.322312 -8.464300 0.472745 2.296230 3.757213 0.611443 1.259730 2.147644 0.545228 1.578131 2.682634 0.689031 1.259730 2.147644 0.545228 -5.710655 19.279662 -0.256530 -6.086613 -5.168887 1.036274 0.607418 2.709591 -0.433793 -15.366959 5.717601 79.163007 12.763248 -2.805317 7.809039 -3.408153 -3.773880 2.918227 -3.596683 2.087138 -0.495928 12.448543 3.617715 -78.565743 -9.805991 -3.058238 -7.884684 4.214834 -3.171365 -3.075103 -9.341878 14.375821 -14.885912 -3.308399 0.104023 -0.054999 -5.234808 -4.820432 10.268038 0.096740 -0.551680 0.042950 11.923899 11.913060 11.201598 12.245024 -1.098696 -0.255627 0.111489 -2.413737 -9.127388 0.099718 0.594688 0.045094
-27.765191 87.449471 4.315167 -136.328757 -8.464277 0.472409 2.292489 3.752508 0.612002 1.257928 2.144292 0.545315 1.575873 2.678446 0.689117 1.257928 2.144292 0.545315 -5.707627 19.285633 -0.261979 -6.082051 -5.162443 1.029697 0.622054 2.724565 -0.427863 -15.361610 5.708683 79.166419 12.756775 -2.807952 7.796471 -3.418513 -3.766890 2.930120 -3.588785 2.105078 -0.489928 12.448412 3.617460 -78.581954 -9.799398 -3.058423 -7.867164 4.215356 -3.165383 -3.081850 -9.337702 14.379598 -14.881741 -3.312749 0.100168 -0.052950 -5.257959 -4.818751 10.263503 0.093769 -0.545069 0.043983 11.922524 11.918099 11.200928 12.245962 -1.101802 -0.255334 0.113331 -2.414872 -9.129102 0.100615 0.596476 0.045968
-27.768033 87.448175 4.312217 -136.336323 -8.468441 0.474609 2.288897 3.748920 0.612222 1.256383 2.141797 0.545187 1.573936 2.675330 0.688939 1.256383 2.141797 0.545187 -5.704586 19.290173 -0.268186 -6.077274 -5.157627 1.022301 0.638452 2.741654 -0.423400 -15.357763 5.699164 79.170429 12.752699 -2.810082 7.783981 -3.427293 -3.759610 2.941181 -3.571233 2.123657 -0.486896 12.445758 3.615726 -78.595418 -9.795779 -3.051839 -7.851333 4.219357 -3.167514 -3.085655 -9.331281 14.388456 -14.882037 -3.319949 0.095787 -0.048782 -5.277024 -4.818004 10.259635 0.090659 -0.538489 0.043592 11.917483 11.928906 11.198101 12.250888 -1.104445 -0.255835 0.115275 -2.415819 -9.129425 0.101794 0.597560 0.046070
-27.770884 87.446809 4.309431 -136.342351 -8.472545 0.477905 2.283442 3.744134 0.612522 1.253322 2.139404 0.545417 1.570106 2.672342 0.689200 1.253322 2.139404 0.545417 -5.698513 19.292583 -0.275658 -6.068802 -5.155436 1.012843 0.659815 2.759365 -0.421515 -15.356916 5.691333 79.172909 12.753768 -2.809389 7.773260 -3.432629 -3.754929 2.950577 -3.549776 2.143031 -0.490139 12.440519 3.612105 -78.604372 -9.790977 -3.051964 -7.835888 4.220084 -3.169042 -3.088005 -9.326025 14.399261 -14.890782 -3.325490 0.088706 -0.042307 -5.268169 -4.817244 10.257773 0.090808 -0.537146 0.043550 11.906569 11.941783 11.193525 12.252550 -1.109460 -0.257915 0.124256 -2.415591 -9.127837 0.102183 0.598766 0.045513
-27.773517 87.445477 4.306669 -136.345252 -8.476545 0.480566 2.274226 3.737852 0.613270 1.247807 2.136179 0.545792 1.563208 2.668319 0.689625 1.247807 2.136179 0.545792 -5.687446 19.294505 -0.283201 -6.054771 -5.154119 1.002149 0.687815 2.780372 -0.419785 -15.357187 5.685901 79.171439 12.758153 -2.809488 7.765505 -3.431101 -3.753646 2.958421 -3.522850 2.167590 -0.495593 12.431547 3.605982 -78.612118 -9.782858 -3.060757 -7.819730 4.221118 -3.168016 -3.089358 -9.325082 14.410933 -14.901934 -3.328348 0.079699 -0.034647 -5.249553 -4.815738 10.255275 0.092180 -0.538027 0.044240 11.889124 11.954579 11.188777 12.251880 -1.113965 -0.260571 0.138772 -2.415834 -9.125831 0.101868 0.600229 0.045026
